<?xml version="1.0" encoding="UTF-8"?>
<svg xmlns="http://www.w3.org/2000/svg" height="260" width="1380">
  <defs>
    <marker id="head" orient="auto" markerWidth="3" markerHeight="4" refX="2" refY="2">
      <path d="M0,0 V4 L2,2 Z" />
    </marker>
  </defs>
  <style>
    rect {
      fill-opacity: 0;
      stroke: black;
      stroke-width: 1px;
    }

    text {
      text-anchor: middle;
      dominant-baseline: middle;
    }

    path {
      stroke: black;
      stroke-width: 2px;
    }
  </style>
  <!-- 0 to 100 -->
  <rect height="50" width="100" />
  <text x="50" y="25">Keyboard</text>

  <rect height="30" width="50" x="25" y="60" rx="10"/>
  <text x="50" y="75">ESC</text>
  <rect height="30" width="50" x="25" y="95" rx="10"/>
  <text x="50" y="110">TAB</text>
  <rect height="30" width="50" x="25" y="130" rx="10"/>
  <text x="50" y="145">E</text>
  <rect height="30" width="50" x="25" y="165" rx="10"/>
  <text x="50" y="180" style="font-size: x-small;">Left Win</text>
  <rect height="30" width="50" x="25" y="200" rx="10"/>
  <text x="50" y="215" style="font-size: x-small;">Right Win</text>

  <!-- 100 to 250 -->
  <path d="M100 25, 250 25" marker-end="url(#head)" />
  <text x="175" y="15">Usage code</text>

  <text x="175" y="75">0×29 = 41</text>
  <text x="175" y="110">0x2B = 43</text>
  <text x="175" y="145">0×08 = 8</text>
  <text x="175" y="180">0×E3 = 227</text>
  <text x="175" y="215">0×E7 = 231</text>
  
  <!-- 250 to 350 -->
  <rect x="250" height="50" width="100" />
  <text x="300" y="25">MB</text>
  
  <!-- 350 to 500 -->
  <path d="M350 25, 500 25" marker-end="url(#head)" />
  <text x="425" y="15">Scancode</text>

  <text x="425" y="75">0x01 = 1</text>
  <text x="425" y="110">0x0F = 15</text>
  <text x="425" y="145"></text>
  <text x="425" y="180">0×E0 5B = 224; 91</text>
  <text x="425" y="215">0×E0 EC = 224; 92</text>

  <!-- 500 to 600 -->
  <rect x="500" height="50" width="100" />
  <text x="550" y="25">Kernel</text>
  
  <!-- 600 to 750 -->
  <path d="M600 25, 750 25" marker-end="url(#head)" />
  <text x="675" y="15">Kernel keycode</text>

  <text x="675" y="75">1</text>
  <text x="675" y="110">15</text>
  <text x="675" y="145"></text>
  <text x="675" y="180">125</text>
  <text x="675" y="215">126</text>

  <!-- 750 to 850 -->
  <rect x="750" height="50" width="100" />
  <text x="800" y="25" style="font-size: small;">libxkbcommon</text>
  
  <!-- 850 to 1000 -->
  <path d="M850 25, 1000 25" marker-end="url(#head)" />
  <text x="925" y="15">X keycode</text>

  <text x="925" y="75">9</text>
  <text x="925" y="110">23</text>
  <text x="925" y="145"></text>
  <text x="925" y="180">133</text>
  <text x="925" y="215">134</text>

  <!-- 1000 to 1300 -->
  <rect x="1000" height="50" width="100" />
  <text x="1050" y="25">X mappings</text>
  
  <path d="M1100 25, 1350 25" marker-end="url(#head)" />
  <text x="1225" y="15">Keysym codes and mnemonics</text>
  <text x="1225" y="35">Unicode code points</text>
  
  <text x="1360" y="25">…</text>
</svg>