<?xml version="1.0" encoding="us-ascii" standalone="no"?><svg xmlns="http://www.w3.org/2000/svg" xmlns:xlink="http://www.w3.org/1999/xlink" contentStyleType="text/css" height="591px" preserveAspectRatio="none" style="width:811px;height:591px;background:#FFFFFF;" version="1.1" viewBox="0 0 811 591" width="811px" zoomAndPan="magnify"><defs/><g><!--class X key name--><g id="elem_X key name"><rect codeLine="3" fill="#F1F1F1" height="29.0679" id="X key name" rx="2.5" ry="2.5" style="stroke:#181818;stroke-width:0.5;" width="77" x="214.5" y="7"/><text fill="#000000" font-family="sans-serif" font-size="14" font-style="italic" lengthAdjust="spacing" textLength="71" x="217.5" y="26.9659">X key name</text></g><!--class Alias X key name--><g id="elem_Alias X key name"><rect fill="#F1F1F1" height="29.0679" id="Alias X key name" rx="2.5" ry="2.5" style="stroke:#181818;stroke-width:0.5;" width="118" x="194" y="115"/><text fill="#000000" font-family="sans-serif" font-size="14" lengthAdjust="spacing" textLength="112" x="197" y="134.9659">Alias X key name</text></g><!--class Canonical X key name--><g id="elem_Canonical X key name"><rect fill="#F1F1F1" height="29.0679" id="Canonical X key name" rx="2.5" ry="2.5" style="stroke:#181818;stroke-width:0.5;" width="152" x="7" y="115"/><text fill="#000000" font-family="sans-serif" font-size="14" lengthAdjust="spacing" textLength="146" x="10" y="134.9659">Canonical X key name</text></g><!--class X keycode--><g id="elem_X keycode"><rect fill="#F1F1F1" height="29.0679" id="X keycode" rx="2.5" ry="2.5" style="stroke:#181818;stroke-width:0.5;" width="72" x="72" y="236.5"/><text fill="#000000" font-family="sans-serif" font-size="14" lengthAdjust="spacing" textLength="66" x="75" y="256.4659">X keycode</text></g><!--class Keysym entry--><g id="elem_Keysym entry"><rect codeLine="9" fill="#F1F1F1" height="29.0679" id="Keysym entry" rx="2.5" ry="2.5" style="stroke:#181818;stroke-width:0.5;" width="90" x="369" y="115"/><text fill="#000000" font-family="sans-serif" font-size="14" font-style="italic" lengthAdjust="spacing" textLength="84" x="372" y="134.9659">Keysym entry</text></g><!--class Keysym mnemonic--><g id="elem_Keysym mnemonic"><rect codeLine="12" fill="#F1F1F1" height="56.1358" id="Keysym mnemonic" rx="2.5" ry="2.5" style="stroke:#181818;stroke-width:0.5;" width="126" x="408" y="223"/><text fill="#000000" font-family="sans-serif" font-size="14" font-style="italic" lengthAdjust="spacing" textLength="116" x="413" y="242.9659">Keysym mnemonic</text><line style="stroke:#181818;stroke-width:0.5;" x1="409" x2="533" y1="252.0679" y2="252.0679"/><text fill="#000000" font-family="sans-serif" font-size="14" lengthAdjust="spacing" textLength="114" x="414" y="271.0339">deprecated: bool</text></g><!--class Unicode code point--><g id="elem_Unicode code point"><rect fill="#F1F1F1" height="29.0679" id="Unicode code point" rx="2.5" ry="2.5" style="stroke:#181818;stroke-width:0.5;" width="136" x="665" y="556"/><text fill="#000000" font-family="sans-serif" font-size="14" lengthAdjust="spacing" textLength="130" x="668" y="575.9659">Unicode code point</text></g><!--class Keysym code--><g id="elem_Keysym code"><rect fill="#F1F1F1" height="29.0679" id="Keysym code" rx="2.5" ry="2.5" style="stroke:#181818;stroke-width:0.5;" width="93" x="384.5" y="448"/><text fill="#000000" font-family="sans-serif" font-size="14" lengthAdjust="spacing" textLength="87" x="387.5" y="467.9659">Keysym code</text></g><!--class Canonical Keysym mnemonic--><g id="elem_Canonical Keysym mnemonic"><rect fill="#F1F1F1" height="29.0679" id="Canonical Keysym mnemonic" rx="2.5" ry="2.5" style="stroke:#181818;stroke-width:0.5;" width="202" x="275" y="340"/><text fill="#000000" font-family="sans-serif" font-size="14" lengthAdjust="spacing" textLength="196" x="278" y="359.9659">Canonical Keysym mnemonic</text></g><!--class Alias Keysym mnemonic--><g id="elem_Alias Keysym mnemonic"><rect fill="#F1F1F1" height="29.0679" id="Alias Keysym mnemonic" rx="2.5" ry="2.5" style="stroke:#181818;stroke-width:0.5;" width="168" x="512" y="340"/><text fill="#000000" font-family="sans-serif" font-size="14" lengthAdjust="spacing" textLength="162" x="515" y="359.9659">Alias Keysym mnemonic</text></g><!--reverse link X key name to Alias X key name--><g id="link_X key name_Alias X key name"><path codeLine="4" d="M253,54.36 C253,74.78 253,94.74 253,114.97 " fill="none" id="X key name-backto-Alias X key name" style="stroke:#181818;stroke-width:1.0;"/><polygon fill="none" points="253,36.36,247,54.36,259,54.36,253,36.36" style="stroke:#181818;stroke-width:1.0;"/></g><!--reverse link X key name to Canonical X key name--><g id="link_X key name_Canonical X key name"><path codeLine="5" d="M215.8455,45.6631 C183.2055,66.0131 137.39,94.59 104.79,114.91 " fill="none" id="X key name-backto-Canonical X key name" style="stroke:#181818;stroke-width:1.0;"/><polygon fill="none" points="231.12,36.14,212.6711,40.5717,219.0199,50.7546,231.12,36.14" style="stroke:#181818;stroke-width:1.0;"/></g><!--link Alias X key name to X keycode--><g id="link_Alias X key name_X keycode"><path codeLine="6" d="M210.32,144.13 C192.81,151.15 173.14,161.01 158,174 C137.5,191.59 122.08,219.59 114.1,236.24 " fill="none" id="Alias X key name-X keycode" style="stroke:#181818;stroke-width:1.0;"/><text fill="#000000" font-family="sans-serif" font-size="13" lengthAdjust="spacing" textLength="36" x="159" y="188.897">evdev</text><text fill="#000000" font-family="sans-serif" font-size="13" lengthAdjust="spacing" textLength="20" x="172.2113" y="166.0876">0..*</text><text fill="#000000" font-family="sans-serif" font-size="13" lengthAdjust="spacing" textLength="7" x="108.0587" y="224.6775">1</text></g><!--link Canonical X key name to X keycode--><g id="link_Canonical X key name_X keycode"><path codeLine="7" d="M80.23,144.1 C78.12,156.9 76.16,176.49 80,193 C83.64,208.68 92.24,225.01 98.95,236.16 " fill="none" id="Canonical X key name-X keycode" style="stroke:#181818;stroke-width:1.0;"/><text fill="#000000" font-family="sans-serif" font-size="13" lengthAdjust="spacing" textLength="36" x="81" y="188.897">evdev</text><text fill="#000000" font-family="sans-serif" font-size="13" lengthAdjust="spacing" textLength="7" x="71.0747" y="166.0473">1</text><text fill="#000000" font-family="sans-serif" font-size="13" lengthAdjust="spacing" textLength="7" x="87.3222" y="224.568">1</text></g><!--link X key name to Keysym entry--><g id="link_X key name_Keysym entry"><path codeLine="10" d="M273.72,36.14 C304.63,56.49 362.49,94.59 393.36,114.91 " fill="none" id="X key name-Keysym entry" style="stroke:#181818;stroke-width:1.0;"/><text fill="#000000" font-family="sans-serif" font-size="13" lengthAdjust="spacing" textLength="78" x="349" y="80.897">xkb_symbols</text><text fill="#000000" font-family="sans-serif" font-size="13" lengthAdjust="spacing" textLength="20" x="361.6785" y="103.1256">0..*</text></g><!--reverse link Keysym entry to Keysym mnemonic--><g id="link_Keysym entry_Keysym mnemonic"><path codeLine="15" d="M428.2861,160.458 C437.4061,179.588 446.4,198.44 458.09,222.94 " fill="none" id="Keysym entry-backto-Keysym mnemonic" style="stroke:#181818;stroke-width:1.0;"/><polygon fill="none" points="420.54,144.21,422.87,163.0401,433.7021,157.876,420.54,144.21" style="stroke:#181818;stroke-width:1.0;"/></g><!--reverse link Keysym entry to Unicode code point--><g id="link_Keysym entry_Unicode code point"><path codeLine="16" d="M477.0212,136.5832 C579.6812,147.3832 804,178.56 804,250 C804,250 804,250 804,463.5 C804,502.04 771.2,537.16 750.19,555.7 " fill="none" id="Keysym entry-backto-Unicode code point" style="stroke:#181818;stroke-width:1.0;"/><polygon fill="none" points="459.12,134.7,476.3935,142.5503,477.649,130.6162,459.12,134.7" style="stroke:#181818;stroke-width:1.0;"/></g><!--reverse link Keysym entry to Keysym code--><g id="link_Keysym entry_Keysym code"><path codeLine="17" d="M377.3718,154.2027 C323.1318,190.3527 204.4,281.47 257,369 C284.4,414.6 342.71,438.93 384.27,451.01 " fill="none" id="Keysym entry-backto-Keysym code" style="stroke:#181818;stroke-width:1.0;"/><polygon fill="none" points="392.35,144.22,374.0443,149.21,380.6994,159.1954,392.35,144.22" style="stroke:#181818;stroke-width:1.0;"/></g><!--reverse link Keysym mnemonic to Canonical Keysym mnemonic--><g id="link_Keysym mnemonic_Canonical Keysym mnemonic"><path codeLine="18" d="M433.2378,292.3398 C414.8778,311.9498 403.18,324.46 388.72,339.91 " fill="none" id="Keysym mnemonic-backto-Canonical Keysym mnemonic" style="stroke:#181818;stroke-width:1.0;"/><polygon fill="none" points="445.54,279.2,428.8578,288.2391,437.6177,296.4406,445.54,279.2" style="stroke:#181818;stroke-width:1.0;"/></g><!--reverse link Keysym mnemonic to Alias Keysym mnemonic--><g id="link_Keysym mnemonic_Alias Keysym mnemonic"><path codeLine="19" d="M518.4734,290.5465 C542.6234,310.1565 560.23,324.46 579.27,339.91 " fill="none" id="Keysym mnemonic-backto-Alias Keysym mnemonic" style="stroke:#181818;stroke-width:1.0;"/><polygon fill="none" points="504.5,279.2,514.6912,295.2043,522.2556,285.8887,504.5,279.2" style="stroke:#181818;stroke-width:1.0;"/></g><!--link Keysym mnemonic to Unicode code point--><g id="link_Keysym mnemonic_Unicode code point"><path codeLine="20" d="M534.01,259.32 C585.91,268.82 657.21,290.55 697,340 C749.84,405.67 740.4,517.08 735.15,555.77 " fill="none" id="Keysym mnemonic-Unicode code point" style="stroke:#181818;stroke-width:1.0;"/><text fill="#000000" font-family="sans-serif" font-size="13" lengthAdjust="spacing" textLength="11" x="732" y="413.897">.h</text><text fill="#000000" font-family="sans-serif" font-size="13" lengthAdjust="spacing" textLength="20" x="541.9955" y="256.2285">0..*</text><text fill="#000000" font-family="sans-serif" font-size="13" lengthAdjust="spacing" textLength="20" x="712.2553" y="544.2186">0..1</text></g><!--link Canonical Keysym mnemonic to Keysym code--><g id="link_Canonical Keysym mnemonic_Keysym code"><path codeLine="21" d="M383.19,369.36 C393.79,389.78 413.48,427.74 423.98,447.97 " fill="none" id="Canonical Keysym mnemonic-Keysym code" style="stroke:#181818;stroke-width:1.0;"/><text fill="#000000" font-family="sans-serif" font-size="13" lengthAdjust="spacing" textLength="11" x="410" y="413.897">.h</text><text fill="#000000" font-family="sans-serif" font-size="13" lengthAdjust="spacing" textLength="20" x="362.2592" y="391.1007">0..1</text><text fill="#000000" font-family="sans-serif" font-size="13" lengthAdjust="spacing" textLength="7" x="412.9693" y="436.2085">1</text></g><!--link Alias Keysym mnemonic to Keysym code--><g id="link_Alias Keysym mnemonic_Keysym code"><path codeLine="22" d="M574.77,369.14 C543.08,389.49 483.79,427.59 452.15,447.91 " fill="none" id="Alias Keysym mnemonic-Keysym code" style="stroke:#181818;stroke-width:1.0;"/><text fill="#000000" font-family="sans-serif" font-size="13" lengthAdjust="spacing" textLength="11" x="530" y="413.897">.h</text><text fill="#000000" font-family="sans-serif" font-size="13" lengthAdjust="spacing" textLength="20" x="544.0347" y="391.1011">0..*</text><text fill="#000000" font-family="sans-serif" font-size="13" lengthAdjust="spacing" textLength="7" x="451.8791" y="436.1256">1</text></g><!--link Keysym code to Unicode code point--><g id="link_Keysym code_Unicode code point"><path codeLine="23" d="M469.56,477.03 C527.44,497.35 636.17,535.51 694.2,555.88 " fill="none" id="Keysym code-Unicode code point" style="stroke:#181818;stroke-width:1.0;"/><text fill="#000000" font-family="sans-serif" font-size="13" lengthAdjust="spacing" textLength="11" x="610" y="521.897">.h</text><text fill="#000000" font-family="sans-serif" font-size="13" lengthAdjust="spacing" textLength="20" x="459.3775" y="498.9532">0..1</text><text fill="#000000" font-family="sans-serif" font-size="13" lengthAdjust="spacing" textLength="20" x="655.595" y="544.0842">0..1</text></g><!--SRC=[ZL9DQmCX4BtxAuOv5hAqrz1BwR7dGc_5Zu6L-B6eX4hR_rxD9h1hpAONqV6zDyzvZbeHa9rI1ajMK8Xih2MfWpJ4k8WfS9b06XuZ07x0WJ8uRWdPyW3FFxiTu8lHFC8Tq2jttcd9pHfunGLy78O7XCfvmdDlwLMvsGCT5Hs1zSLE-2rQ-p1yenop1N8fvCPqrPcDh555xUiWFaj1U1DlIbf7jZf4-6O0YgP0aYTIUn3U6_RB6jLvHYsvZtelLxwcLPV9QvTmK-uq1NRjhCtbPlUMCcVs3_WYohAhiNIybuaE8zlmSI5Vebq-wqpkEsg_KeUuAYtwtB7x1m00]--></g></svg>